# xmcd
#
# Track frame offsets:
#	150
#	47295
#	101119
#
# Disc length: 1856 seconds
#
# Revision: 1
# Processed by: cddbd v1.5.2PL0 Copyright (c) Steve Scherf et al.
# Submitted via: audiograbber 1.83.01
#
DISCID=1b073e03
DTITLE=Grateful Dead - 79-06-28 Sacramento Memorial Auditorium, Sacramento CA
DYEAR=1900
DGENRE=
TTITLE0=Scarlet Begonias
TTITLE1=Fire On The Mountain
TTITLE2=Samson and Delilah
EXTD=
EXTT0=
EXTT1=
EXTT2=
PLAYORDER=
